{
	"asset":{
		"generator":"Khronos glTF Blender I/O v5.0.21",
		"version":"2.0"
	},
	"extensionsUsed":[
		"KHR_materials_emissive_strength"
	],
	"scene":0,
	"scenes":[
		{
			"extras":{
				"ypui":{
					"expand_channels":0,
					"expand_mask_channels":0,
					"show_bake_targets":0,
					"show_channels":1,
					"show_layers":1,
					"show_materials":0,
					"show_object":0,
					"show_stats":0,
					"show_support":0,
					"show_test":0,
					"tree_name":""
				},
				"instantclean_misc":{}
			},
			"name":"Scene",
			"nodes":[
				0,
				1,
				2,
				3,
				4,
				5,
				6,
				7,
				8,
				9,
				10,
				11,
				12,
				13,
				14,
				15,
				16,
				17,
				18,
				19,
				20,
				21,
				22,
				23,
				24,
				25,
				26,
				27
			]
		}
	],
	"nodes":[
		{
			"mesh":0,
			"name":"28"
		},
		{
			"mesh":1,
			"name":"27"
		},
		{
			"mesh":2,
			"name":"26"
		},
		{
			"mesh":3,
			"name":"25"
		},
		{
			"mesh":4,
			"name":"24"
		},
		{
			"mesh":5,
			"name":"23"
		},
		{
			"mesh":6,
			"name":"22"
		},
		{
			"mesh":7,
			"name":"21"
		},
		{
			"mesh":8,
			"name":"20"
		},
		{
			"mesh":9,
			"name":"19"
		},
		{
			"mesh":10,
			"name":"18"
		},
		{
			"mesh":11,
			"name":"17"
		},
		{
			"mesh":12,
			"name":"16"
		},
		{
			"mesh":13,
			"name":"15"
		},
		{
			"mesh":14,
			"name":"14"
		},
		{
			"mesh":15,
			"name":"13"
		},
		{
			"mesh":16,
			"name":"12"
		},
		{
			"mesh":17,
			"name":"11"
		},
		{
			"mesh":18,
			"name":"10"
		},
		{
			"mesh":19,
			"name":"9"
		},
		{
			"mesh":20,
			"name":"8"
		},
		{
			"mesh":21,
			"name":"7"
		},
		{
			"mesh":22,
			"name":"6"
		},
		{
			"mesh":23,
			"name":"5"
		},
		{
			"mesh":24,
			"name":"4"
		},
		{
			"mesh":25,
			"name":"3"
		},
		{
			"mesh":26,
			"name":"2"
		},
		{
			"mesh":27,
			"name":"1"
		}
	],
	"materials":[
		{
			"doubleSided":true,
			"emissiveFactor":[
				1,
				0.44535255432128906,
				0.006539845839142799
			],
			"extensions":{
				"KHR_materials_emissive_strength":{
					"emissiveStrength":600
				}
			},
			"extras":{
				"yp":{
					"active_ypaint_node":""
				}
			},
			"name":"LightEmission",
			"pbrMetallicRoughness":{
				"baseColorTexture":{
					"index":0
				},
				"metallicFactor":0
			}
		}
	],
	"meshes":[
		{
			"name":"Text.002",
			"primitives":[
				{
					"attributes":{
						"POSITION":0,
						"NORMAL":1,
						"TEXCOORD_0":2
					},
					"indices":3,
					"material":0
				}
			]
		},
		{
			"name":"Text.004",
			"primitives":[
				{
					"attributes":{
						"POSITION":4,
						"NORMAL":5,
						"TEXCOORD_0":6
					},
					"indices":7,
					"material":0
				}
			]
		},
		{
			"name":"Text.006",
			"primitives":[
				{
					"attributes":{
						"POSITION":8,
						"NORMAL":9,
						"TEXCOORD_0":10
					},
					"indices":11,
					"material":0
				}
			]
		},
		{
			"name":"Text.008",
			"primitives":[
				{
					"attributes":{
						"POSITION":12,
						"NORMAL":13,
						"TEXCOORD_0":14
					},
					"indices":15,
					"material":0
				}
			]
		},
		{
			"name":"Text.010",
			"primitives":[
				{
					"attributes":{
						"POSITION":16,
						"NORMAL":17,
						"TEXCOORD_0":18
					},
					"indices":19,
					"material":0
				}
			]
		},
		{
			"name":"Text.012",
			"primitives":[
				{
					"attributes":{
						"POSITION":20,
						"NORMAL":21,
						"TEXCOORD_0":22
					},
					"indices":23,
					"material":0
				}
			]
		},
		{
			"name":"Text.014",
			"primitives":[
				{
					"attributes":{
						"POSITION":24,
						"NORMAL":25,
						"TEXCOORD_0":26
					},
					"indices":27,
					"material":0
				}
			]
		},
		{
			"name":"Text.016",
			"primitives":[
				{
					"attributes":{
						"POSITION":28,
						"NORMAL":29,
						"TEXCOORD_0":30
					},
					"indices":31,
					"material":0
				}
			]
		},
		{
			"name":"Text.018",
			"primitives":[
				{
					"attributes":{
						"POSITION":32,
						"NORMAL":33,
						"TEXCOORD_0":34
					},
					"indices":35,
					"material":0
				}
			]
		},
		{
			"name":"Text.020",
			"primitives":[
				{
					"attributes":{
						"POSITION":36,
						"NORMAL":37,
						"TEXCOORD_0":38
					},
					"indices":39,
					"material":0
				}
			]
		},
		{
			"name":"Text.022",
			"primitives":[
				{
					"attributes":{
						"POSITION":40,
						"NORMAL":41,
						"TEXCOORD_0":42
					},
					"indices":43,
					"material":0
				}
			]
		},
		{
			"name":"Text.024",
			"primitives":[
				{
					"attributes":{
						"POSITION":44,
						"NORMAL":45,
						"TEXCOORD_0":46
					},
					"indices":47,
					"material":0
				}
			]
		},
		{
			"name":"Text.026",
			"primitives":[
				{
					"attributes":{
						"POSITION":48,
						"NORMAL":49,
						"TEXCOORD_0":50
					},
					"indices":51,
					"material":0
				}
			]
		},
		{
			"name":"Text.028",
			"primitives":[
				{
					"attributes":{
						"POSITION":52,
						"NORMAL":53,
						"TEXCOORD_0":54
					},
					"indices":55,
					"material":0
				}
			]
		},
		{
			"name":"Text.030",
			"primitives":[
				{
					"attributes":{
						"POSITION":56,
						"NORMAL":57,
						"TEXCOORD_0":58
					},
					"indices":59,
					"material":0
				}
			]
		},
		{
			"name":"Text.032",
			"primitives":[
				{
					"attributes":{
						"POSITION":60,
						"NORMAL":61,
						"TEXCOORD_0":62
					},
					"indices":63,
					"material":0
				}
			]
		},
		{
			"name":"Text.034",
			"primitives":[
				{
					"attributes":{
						"POSITION":64,
						"NORMAL":65,
						"TEXCOORD_0":66
					},
					"indices":67,
					"material":0
				}
			]
		},
		{
			"name":"Text.036",
			"primitives":[
				{
					"attributes":{
						"POSITION":68,
						"NORMAL":69,
						"TEXCOORD_0":70
					},
					"indices":71,
					"material":0
				}
			]
		},
		{
			"name":"Text.038",
			"primitives":[
				{
					"attributes":{
						"POSITION":72,
						"NORMAL":73,
						"TEXCOORD_0":74
					},
					"indices":75,
					"material":0
				}
			]
		},
		{
			"name":"Text.039",
			"primitives":[
				{
					"attributes":{
						"POSITION":76,
						"NORMAL":77,
						"TEXCOORD_0":78
					},
					"indices":79,
					"material":0
				}
			]
		},
		{
			"name":"Text.040",
			"primitives":[
				{
					"attributes":{
						"POSITION":80,
						"NORMAL":81,
						"TEXCOORD_0":82
					},
					"indices":83,
					"material":0
				}
			]
		},
		{
			"name":"Text.041",
			"primitives":[
				{
					"attributes":{
						"POSITION":84,
						"NORMAL":85,
						"TEXCOORD_0":86
					},
					"indices":87,
					"material":0
				}
			]
		},
		{
			"name":"Text.042",
			"primitives":[
				{
					"attributes":{
						"POSITION":88,
						"NORMAL":89,
						"TEXCOORD_0":90
					},
					"indices":91,
					"material":0
				}
			]
		},
		{
			"name":"Text.043",
			"primitives":[
				{
					"attributes":{
						"POSITION":92,
						"NORMAL":93,
						"TEXCOORD_0":94
					},
					"indices":95,
					"material":0
				}
			]
		},
		{
			"name":"Text.044",
			"primitives":[
				{
					"attributes":{
						"POSITION":96,
						"NORMAL":97,
						"TEXCOORD_0":98
					},
					"indices":99,
					"material":0
				}
			]
		},
		{
			"name":"Text.045",
			"primitives":[
				{
					"attributes":{
						"POSITION":100,
						"NORMAL":101,
						"TEXCOORD_0":102
					},
					"indices":103,
					"material":0
				}
			]
		},
		{
			"name":"Text.046",
			"primitives":[
				{
					"attributes":{
						"POSITION":104,
						"NORMAL":105,
						"TEXCOORD_0":106
					},
					"indices":107,
					"material":0
				}
			]
		},
		{
			"name":"Text.047",
			"primitives":[
				{
					"attributes":{
						"POSITION":108,
						"NORMAL":109,
						"TEXCOORD_0":110
					},
					"indices":111,
					"material":0
				}
			]
		}
	],
	"textures":[
		{
			"sampler":0,
			"source":0
		}
	],
	"images":[
		{
			"mimeType":"image/png",
			"name":"UE4_1m x 1m",
			"uri":"UE4_1m%20x%201m.png"
		}
	],
	"accessors":[
		{
			"bufferView":0,
			"componentType":5126,
			"count":1680,
			"max":[
				0.46700000762939453,
				0.34999942779541016,
				0.050000015646219254
			],
			"min":[
				-0.46700000762939453,
				-0.35000038146972656,
				-0.050000015646219254
			],
			"type":"VEC3"
		},
		{
			"bufferView":1,
			"componentType":5126,
			"count":1680,
			"type":"VEC3"
		},
		{
			"bufferView":2,
			"componentType":5126,
			"count":1680,
			"type":"VEC2"
		},
		{
			"bufferView":3,
			"componentType":5123,
			"count":3360,
			"type":"SCALAR"
		},
		{
			"bufferView":4,
			"componentType":5126,
			"count":564,
			"max":[
				0.4779999852180481,
				0.34999942779541016,
				0.050000015646219254
			],
			"min":[
				-0.4779999852180481,
				-0.35000038146972656,
				-0.050000015646219254
			],
			"type":"VEC3"
		},
		{
			"bufferView":5,
			"componentType":5126,
			"count":564,
			"type":"VEC3"
		},
		{
			"bufferView":6,
			"componentType":5126,
			"count":564,
			"type":"VEC2"
		},
		{
			"bufferView":7,
			"componentType":5123,
			"count":1104,
			"type":"SCALAR"
		},
		{
			"bufferView":8,
			"componentType":5126,
			"count":1215,
			"max":[
				0.46549999713897705,
				0.34999942779541016,
				0.05000001937150955
			],
			"min":[
				-0.46549999713897705,
				-0.35000038146972656,
				-0.050000011920928955
			],
			"type":"VEC3"
		},
		{
			"bufferView":9,
			"componentType":5126,
			"count":1215,
			"type":"VEC3"
		},
		{
			"bufferView":10,
			"componentType":5126,
			"count":1215,
			"type":"VEC2"
		},
		{
			"bufferView":11,
			"componentType":5123,
			"count":2376,
			"type":"SCALAR"
		},
		{
			"bufferView":12,
			"componentType":5126,
			"count":996,
			"max":[
				0.4520000219345093,
				0.34999942779541016,
				0.050000015646219254
			],
			"min":[
				-0.4520000219345093,
				-0.35000038146972656,
				-0.050000015646219254
			],
			"type":"VEC3"
		},
		{
			"bufferView":13,
			"componentType":5126,
			"count":996,
			"type":"VEC3"
		},
		{
			"bufferView":14,
			"componentType":5126,
			"count":996,
			"type":"VEC2"
		},
		{
			"bufferView":15,
			"componentType":5123,
			"count":1968,
			"type":"SCALAR"
		},
		{
			"bufferView":16,
			"componentType":5126,
			"count":623,
			"max":[
				0.468500018119812,
				0.34549999237060547,
				0.050000015646219254
			],
			"min":[
				-0.468500018119812,
				-0.34549999237060547,
				-0.050000015646219254
			],
			"type":"VEC3"
		},
		{
			"bufferView":17,
			"componentType":5126,
			"count":623,
			"type":"VEC3"
		},
		{
			"bufferView":18,
			"componentType":5126,
			"count":623,
			"type":"VEC2"
		},
		{
			"bufferView":19,
			"componentType":5123,
			"count":1212,
			"type":"SCALAR"
		},
		{
			"bufferView":20,
			"componentType":5126,
			"count":1395,
			"max":[
				0.4449999928474426,
				0.34999942779541016,
				0.05000001937150955
			],
			"min":[
				-0.4449999928474426,
				-0.35000038146972656,
				-0.050000011920928955
			],
			"type":"VEC3"
		},
		{
			"bufferView":21,
			"componentType":5126,
			"count":1395,
			"type":"VEC3"
		},
		{
			"bufferView":22,
			"componentType":5126,
			"count":1395,
			"type":"VEC2"
		},
		{
			"bufferView":23,
			"componentType":5123,
			"count":2736,
			"type":"SCALAR"
		},
		{
			"bufferView":24,
			"componentType":5126,
			"count":1056,
			"max":[
				0.4660000205039978,
				0.34549999237060547,
				0.050000015646219254
			],
			"min":[
				-0.4660000205039978,
				-0.34549999237060547,
				-0.050000015646219254
			],
			"type":"VEC3"
		},
		{
			"bufferView":25,
			"componentType":5126,
			"count":1056,
			"type":"VEC3"
		},
		{
			"bufferView":26,
			"componentType":5126,
			"count":1056,
			"type":"VEC2"
		},
		{
			"bufferView":27,
			"componentType":5123,
			"count":2088,
			"type":"SCALAR"
		},
		{
			"bufferView":28,
			"componentType":5126,
			"count":552,
			"max":[
				0.3830000162124634,
				0.34549999237060547,
				0.050000015646219254
			],
			"min":[
				-0.3830000162124634,
				-0.34549999237060547,
				-0.050000015646219254
			],
			"type":"VEC3"
		},
		{
			"bufferView":29,
			"componentType":5126,
			"count":552,
			"type":"VEC3"
		},
		{
			"bufferView":30,
			"componentType":5126,
			"count":552,
			"type":"VEC2"
		},
		{
			"bufferView":31,
			"componentType":5123,
			"count":1080,
			"type":"SCALAR"
		},
		{
			"bufferView":32,
			"componentType":5126,
			"count":1104,
			"max":[
				0.46799999475479126,
				0.34999990463256836,
				0.050000015646219254
			],
			"min":[
				-0.46799999475479126,
				-0.34999990463256836,
				-0.050000015646219254
			],
			"type":"VEC3"
		},
		{
			"bufferView":33,
			"componentType":5126,
			"count":1104,
			"type":"VEC3"
		},
		{
			"bufferView":34,
			"componentType":5126,
			"count":1104,
			"type":"VEC2"
		},
		{
			"bufferView":35,
			"componentType":5123,
			"count":2196,
			"type":"SCALAR"
		},
		{
			"bufferView":36,
			"componentType":5126,
			"count":741,
			"max":[
				0.37950000166893005,
				0.34999990463256836,
				0.05000001937150955
			],
			"min":[
				-0.37950000166893005,
				-0.34999990463256836,
				-0.050000011920928955
			],
			"type":"VEC3"
		},
		{
			"bufferView":37,
			"componentType":5126,
			"count":741,
			"type":"VEC3"
		},
		{
			"bufferView":38,
			"componentType":5126,
			"count":741,
			"type":"VEC2"
		},
		{
			"bufferView":39,
			"componentType":5123,
			"count":1392,
			"type":"SCALAR"
		},
		{
			"bufferView":40,
			"componentType":5126,
			"count":1176,
			"max":[
				0.3830000162124634,
				0.34999990463256836,
				0.050000015646219254
			],
			"min":[
				-0.3830000162124634,
				-0.35000014305114746,
				-0.050000015646219254
			],
			"type":"VEC3"
		},
		{
			"bufferView":41,
			"componentType":5126,
			"count":1176,
			"type":"VEC3"
		},
		{
			"bufferView":42,
			"componentType":5126,
			"count":1176,
			"type":"VEC2"
		},
		{
			"bufferView":43,
			"componentType":5123,
			"count":2352,
			"type":"SCALAR"
		},
		{
			"bufferView":44,
			"componentType":5126,
			"count":60,
			"max":[
				0.39399999380111694,
				0.34549999237060547,
				0.050000015646219254
			],
			"min":[
				-0.39399999380111694,
				-0.34550023078918457,
				-0.050000015646219254
			],
			"type":"VEC3"
		},
		{
			"bufferView":45,
			"componentType":5126,
			"count":60,
			"type":"VEC3"
		},
		{
			"bufferView":46,
			"componentType":5126,
			"count":60,
			"type":"VEC2"
		},
		{
			"bufferView":47,
			"componentType":5123,
			"count":96,
			"type":"SCALAR"
		},
		{
			"bufferView":48,
			"componentType":5126,
			"count":714,
			"max":[
				0.3815000057220459,
				0.34999990463256836,
				0.050000015646219254
			],
			"min":[
				-0.3815000057220459,
				-0.3500000238418579,
				-0.050000015646219254
			],
			"type":"VEC3"
		},
		{
			"bufferView":49,
			"componentType":5126,
			"count":714,
			"type":"VEC3"
		},
		{
			"bufferView":50,
			"componentType":5126,
			"count":714,
			"type":"VEC2"
		},
		{
			"bufferView":51,
			"componentType":5123,
			"count":1374,
			"type":"SCALAR"
		},
		{
			"bufferView":52,
			"componentType":5126,
			"count":492,
			"max":[
				0.36800000071525574,
				0.34549999237060547,
				0.050000015646219254
			],
			"min":[
				-0.36800000071525574,
				-0.34550005197525024,
				-0.050000015646219254
			],
			"type":"VEC3"
		},
		{
			"bufferView":53,
			"componentType":5126,
			"count":492,
			"type":"VEC3"
		},
		{
			"bufferView":54,
			"componentType":5126,
			"count":492,
			"type":"VEC2"
		},
		{
			"bufferView":55,
			"componentType":5123,
			"count":960,
			"type":"SCALAR"
		},
		{
			"bufferView":56,
			"componentType":5126,
			"count":116,
			"max":[
				0.38449999690055847,
				0.34550005197525024,
				0.050000015646219254
			],
			"min":[
				-0.38449999690055847,
				-0.34549999237060547,
				-0.050000015646219254
			],
			"type":"VEC3"
		},
		{
			"bufferView":57,
			"componentType":5126,
			"count":116,
			"type":"VEC3"
		},
		{
			"bufferView":58,
			"componentType":5126,
			"count":116,
			"type":"VEC2"
		},
		{
			"bufferView":59,
			"componentType":5123,
			"count":204,
			"type":"SCALAR"
		},
		{
			"bufferView":60,
			"componentType":5126,
			"count":889,
			"max":[
				0.3610000014305115,
				0.34999990463256836,
				0.050000015646219254
			],
			"min":[
				-0.3610000014305115,
				-0.3500000238418579,
				-0.050000015646219254
			],
			"type":"VEC3"
		},
		{
			"bufferView":61,
			"componentType":5126,
			"count":889,
			"type":"VEC3"
		},
		{
			"bufferView":62,
			"componentType":5126,
			"count":889,
			"type":"VEC2"
		},
		{
			"bufferView":63,
			"componentType":5123,
			"count":1734,
			"type":"SCALAR"
		},
		{
			"bufferView":64,
			"componentType":5126,
			"count":552,
			"max":[
				0.38199999928474426,
				0.34549999237060547,
				0.050000015646219254
			],
			"min":[
				-0.38199999928474426,
				-0.34549999237060547,
				-0.050000015646219254
			],
			"type":"VEC3"
		},
		{
			"bufferView":65,
			"componentType":5126,
			"count":552,
			"type":"VEC3"
		},
		{
			"bufferView":66,
			"componentType":5126,
			"count":552,
			"type":"VEC2"
		},
		{
			"bufferView":67,
			"componentType":5123,
			"count":1080,
			"type":"SCALAR"
		},
		{
			"bufferView":68,
			"componentType":5126,
			"count":48,
			"max":[
				0.29899999499320984,
				0.3410000801086426,
				0.050000015646219254
			],
			"min":[
				-0.29899999499320984,
				-0.3410000801086426,
				-0.050000015646219254
			],
			"type":"VEC3"
		},
		{
			"bufferView":69,
			"componentType":5126,
			"count":48,
			"type":"VEC3"
		},
		{
			"bufferView":70,
			"componentType":5126,
			"count":48,
			"type":"VEC2"
		},
		{
			"bufferView":71,
			"componentType":5123,
			"count":72,
			"type":"SCALAR"
		},
		{
			"bufferView":72,
			"componentType":5126,
			"count":600,
			"max":[
				0.3840000033378601,
				0.34999990463256836,
				0.050000015646219254
			],
			"min":[
				-0.3840000033378601,
				-0.34999990463256836,
				-0.050000015646219254
			],
			"type":"VEC3"
		},
		{
			"bufferView":73,
			"componentType":5126,
			"count":600,
			"type":"VEC3"
		},
		{
			"bufferView":74,
			"componentType":5126,
			"count":600,
			"type":"VEC2"
		},
		{
			"bufferView":75,
			"componentType":5123,
			"count":1188,
			"type":"SCALAR"
		},
		{
			"bufferView":76,
			"componentType":5126,
			"count":720,
			"max":[
				0.21250000596046448,
				0.34999990463256836,
				0.05000001937150955
			],
			"min":[
				-0.21250000596046448,
				-0.34999990463256836,
				-0.050000011920928955
			],
			"type":"VEC3"
		},
		{
			"bufferView":77,
			"componentType":5126,
			"count":720,
			"type":"VEC3"
		},
		{
			"bufferView":78,
			"componentType":5126,
			"count":720,
			"type":"VEC2"
		},
		{
			"bufferView":79,
			"componentType":5123,
			"count":1356,
			"type":"SCALAR"
		},
		{
			"bufferView":80,
			"componentType":5126,
			"count":1152,
			"max":[
				0.21800000965595245,
				0.34999990463256836,
				0.050000015646219254
			],
			"min":[
				-0.21800000965595245,
				-0.34999990463256836,
				-0.050000015646219254
			],
			"type":"VEC3"
		},
		{
			"bufferView":81,
			"componentType":5126,
			"count":1152,
			"type":"VEC3"
		},
		{
			"bufferView":82,
			"componentType":5126,
			"count":1152,
			"type":"VEC2"
		},
		{
			"bufferView":83,
			"componentType":5123,
			"count":2316,
			"type":"SCALAR"
		},
		{
			"bufferView":84,
			"componentType":5126,
			"count":36,
			"max":[
				0.22050000727176666,
				0.34549999237060547,
				0.050000015646219254
			],
			"min":[
				-0.22050000727176666,
				-0.34549999237060547,
				-0.050000015646219254
			],
			"type":"VEC3"
		},
		{
			"bufferView":85,
			"componentType":5126,
			"count":36,
			"type":"VEC3"
		},
		{
			"bufferView":86,
			"componentType":5126,
			"count":36,
			"type":"VEC2"
		},
		{
			"bufferView":87,
			"componentType":5123,
			"count":60,
			"type":"SCALAR"
		},
		{
			"bufferView":88,
			"componentType":5126,
			"count":695,
			"max":[
				0.21050001680850983,
				0.35000038146972656,
				0.05000001937150955
			],
			"min":[
				-0.21050001680850983,
				-0.34999942779541016,
				-0.050000011920928955
			],
			"type":"VEC3"
		},
		{
			"bufferView":89,
			"componentType":5126,
			"count":695,
			"type":"VEC3"
		},
		{
			"bufferView":90,
			"componentType":5126,
			"count":695,
			"type":"VEC2"
		},
		{
			"bufferView":91,
			"componentType":5123,
			"count":1338,
			"type":"SCALAR"
		},
		{
			"bufferView":92,
			"componentType":5126,
			"count":468,
			"max":[
				0.1940000057220459,
				0.34549999237060547,
				0.050000015646219254
			],
			"min":[
				-0.1940000057220459,
				-0.34549999237060547,
				-0.050000015646219254
			],
			"type":"VEC3"
		},
		{
			"bufferView":93,
			"componentType":5126,
			"count":468,
			"type":"VEC3"
		},
		{
			"bufferView":94,
			"componentType":5126,
			"count":468,
			"type":"VEC2"
		},
		{
			"bufferView":95,
			"componentType":5123,
			"count":924,
			"type":"SCALAR"
		},
		{
			"bufferView":96,
			"componentType":5126,
			"count":94,
			"max":[
				0.23000000417232513,
				0.34549999237060547,
				0.050000015646219254
			],
			"min":[
				-0.23000000417232513,
				-0.34549999237060547,
				-0.050000015646219254
			],
			"type":"VEC3"
		},
		{
			"bufferView":97,
			"componentType":5126,
			"count":94,
			"type":"VEC3"
		},
		{
			"bufferView":98,
			"componentType":5126,
			"count":94,
			"type":"VEC2"
		},
		{
			"bufferView":99,
			"componentType":5123,
			"count":168,
			"type":"SCALAR"
		},
		{
			"bufferView":100,
			"componentType":5126,
			"count":864,
			"max":[
				0.18000000715255737,
				0.35000038146972656,
				0.05000001937150955
			],
			"min":[
				-0.18000000715255737,
				-0.34999942779541016,
				-0.050000011920928955
			],
			"type":"VEC3"
		},
		{
			"bufferView":101,
			"componentType":5126,
			"count":864,
			"type":"VEC3"
		},
		{
			"bufferView":102,
			"componentType":5126,
			"count":864,
			"type":"VEC2"
		},
		{
			"bufferView":103,
			"componentType":5123,
			"count":1692,
			"type":"SCALAR"
		},
		{
			"bufferView":104,
			"componentType":5126,
			"count":528,
			"max":[
				0.2160000056028366,
				0.34549999237060547,
				0.050000015646219254
			],
			"min":[
				-0.2160000056028366,
				-0.34549999237060547,
				-0.050000015646219254
			],
			"type":"VEC3"
		},
		{
			"bufferView":105,
			"componentType":5126,
			"count":528,
			"type":"VEC3"
		},
		{
			"bufferView":106,
			"componentType":5126,
			"count":528,
			"type":"VEC2"
		},
		{
			"bufferView":107,
			"componentType":5123,
			"count":1044,
			"type":"SCALAR"
		},
		{
			"bufferView":108,
			"componentType":5126,
			"count":24,
			"max":[
				0.04900000989437103,
				0.3409996032714844,
				0.050000015646219254
			],
			"min":[
				-0.04900000989437103,
				-0.3410005569458008,
				-0.050000015646219254
			],
			"type":"VEC3"
		},
		{
			"bufferView":109,
			"componentType":5126,
			"count":24,
			"type":"VEC3"
		},
		{
			"bufferView":110,
			"componentType":5126,
			"count":24,
			"type":"VEC2"
		},
		{
			"bufferView":111,
			"componentType":5123,
			"count":36,
			"type":"SCALAR"
		}
	],
	"bufferViews":[
		{
			"buffer":0,
			"byteLength":20160,
			"byteOffset":0,
			"target":34962
		},
		{
			"buffer":0,
			"byteLength":20160,
			"byteOffset":20160,
			"target":34962
		},
		{
			"buffer":0,
			"byteLength":13440,
			"byteOffset":40320,
			"target":34962
		},
		{
			"buffer":0,
			"byteLength":6720,
			"byteOffset":53760,
			"target":34963
		},
		{
			"buffer":0,
			"byteLength":6768,
			"byteOffset":60480,
			"target":34962
		},
		{
			"buffer":0,
			"byteLength":6768,
			"byteOffset":67248,
			"target":34962
		},
		{
			"buffer":0,
			"byteLength":4512,
			"byteOffset":74016,
			"target":34962
		},
		{
			"buffer":0,
			"byteLength":2208,
			"byteOffset":78528,
			"target":34963
		},
		{
			"buffer":0,
			"byteLength":14580,
			"byteOffset":80736,
			"target":34962
		},
		{
			"buffer":0,
			"byteLength":14580,
			"byteOffset":95316,
			"target":34962
		},
		{
			"buffer":0,
			"byteLength":9720,
			"byteOffset":109896,
			"target":34962
		},
		{
			"buffer":0,
			"byteLength":4752,
			"byteOffset":119616,
			"target":34963
		},
		{
			"buffer":0,
			"byteLength":11952,
			"byteOffset":124368,
			"target":34962
		},
		{
			"buffer":0,
			"byteLength":11952,
			"byteOffset":136320,
			"target":34962
		},
		{
			"buffer":0,
			"byteLength":7968,
			"byteOffset":148272,
			"target":34962
		},
		{
			"buffer":0,
			"byteLength":3936,
			"byteOffset":156240,
			"target":34963
		},
		{
			"buffer":0,
			"byteLength":7476,
			"byteOffset":160176,
			"target":34962
		},
		{
			"buffer":0,
			"byteLength":7476,
			"byteOffset":167652,
			"target":34962
		},
		{
			"buffer":0,
			"byteLength":4984,
			"byteOffset":175128,
			"target":34962
		},
		{
			"buffer":0,
			"byteLength":2424,
			"byteOffset":180112,
			"target":34963
		},
		{
			"buffer":0,
			"byteLength":16740,
			"byteOffset":182536,
			"target":34962
		},
		{
			"buffer":0,
			"byteLength":16740,
			"byteOffset":199276,
			"target":34962
		},
		{
			"buffer":0,
			"byteLength":11160,
			"byteOffset":216016,
			"target":34962
		},
		{
			"buffer":0,
			"byteLength":5472,
			"byteOffset":227176,
			"target":34963
		},
		{
			"buffer":0,
			"byteLength":12672,
			"byteOffset":232648,
			"target":34962
		},
		{
			"buffer":0,
			"byteLength":12672,
			"byteOffset":245320,
			"target":34962
		},
		{
			"buffer":0,
			"byteLength":8448,
			"byteOffset":257992,
			"target":34962
		},
		{
			"buffer":0,
			"byteLength":4176,
			"byteOffset":266440,
			"target":34963
		},
		{
			"buffer":0,
			"byteLength":6624,
			"byteOffset":270616,
			"target":34962
		},
		{
			"buffer":0,
			"byteLength":6624,
			"byteOffset":277240,
			"target":34962
		},
		{
			"buffer":0,
			"byteLength":4416,
			"byteOffset":283864,
			"target":34962
		},
		{
			"buffer":0,
			"byteLength":2160,
			"byteOffset":288280,
			"target":34963
		},
		{
			"buffer":0,
			"byteLength":13248,
			"byteOffset":290440,
			"target":34962
		},
		{
			"buffer":0,
			"byteLength":13248,
			"byteOffset":303688,
			"target":34962
		},
		{
			"buffer":0,
			"byteLength":8832,
			"byteOffset":316936,
			"target":34962
		},
		{
			"buffer":0,
			"byteLength":4392,
			"byteOffset":325768,
			"target":34963
		},
		{
			"buffer":0,
			"byteLength":8892,
			"byteOffset":330160,
			"target":34962
		},
		{
			"buffer":0,
			"byteLength":8892,
			"byteOffset":339052,
			"target":34962
		},
		{
			"buffer":0,
			"byteLength":5928,
			"byteOffset":347944,
			"target":34962
		},
		{
			"buffer":0,
			"byteLength":2784,
			"byteOffset":353872,
			"target":34963
		},
		{
			"buffer":0,
			"byteLength":14112,
			"byteOffset":356656,
			"target":34962
		},
		{
			"buffer":0,
			"byteLength":14112,
			"byteOffset":370768,
			"target":34962
		},
		{
			"buffer":0,
			"byteLength":9408,
			"byteOffset":384880,
			"target":34962
		},
		{
			"buffer":0,
			"byteLength":4704,
			"byteOffset":394288,
			"target":34963
		},
		{
			"buffer":0,
			"byteLength":720,
			"byteOffset":398992,
			"target":34962
		},
		{
			"buffer":0,
			"byteLength":720,
			"byteOffset":399712,
			"target":34962
		},
		{
			"buffer":0,
			"byteLength":480,
			"byteOffset":400432,
			"target":34962
		},
		{
			"buffer":0,
			"byteLength":192,
			"byteOffset":400912,
			"target":34963
		},
		{
			"buffer":0,
			"byteLength":8568,
			"byteOffset":401104,
			"target":34962
		},
		{
			"buffer":0,
			"byteLength":8568,
			"byteOffset":409672,
			"target":34962
		},
		{
			"buffer":0,
			"byteLength":5712,
			"byteOffset":418240,
			"target":34962
		},
		{
			"buffer":0,
			"byteLength":2748,
			"byteOffset":423952,
			"target":34963
		},
		{
			"buffer":0,
			"byteLength":5904,
			"byteOffset":426700,
			"target":34962
		},
		{
			"buffer":0,
			"byteLength":5904,
			"byteOffset":432604,
			"target":34962
		},
		{
			"buffer":0,
			"byteLength":3936,
			"byteOffset":438508,
			"target":34962
		},
		{
			"buffer":0,
			"byteLength":1920,
			"byteOffset":442444,
			"target":34963
		},
		{
			"buffer":0,
			"byteLength":1392,
			"byteOffset":444364,
			"target":34962
		},
		{
			"buffer":0,
			"byteLength":1392,
			"byteOffset":445756,
			"target":34962
		},
		{
			"buffer":0,
			"byteLength":928,
			"byteOffset":447148,
			"target":34962
		},
		{
			"buffer":0,
			"byteLength":408,
			"byteOffset":448076,
			"target":34963
		},
		{
			"buffer":0,
			"byteLength":10668,
			"byteOffset":448484,
			"target":34962
		},
		{
			"buffer":0,
			"byteLength":10668,
			"byteOffset":459152,
			"target":34962
		},
		{
			"buffer":0,
			"byteLength":7112,
			"byteOffset":469820,
			"target":34962
		},
		{
			"buffer":0,
			"byteLength":3468,
			"byteOffset":476932,
			"target":34963
		},
		{
			"buffer":0,
			"byteLength":6624,
			"byteOffset":480400,
			"target":34962
		},
		{
			"buffer":0,
			"byteLength":6624,
			"byteOffset":487024,
			"target":34962
		},
		{
			"buffer":0,
			"byteLength":4416,
			"byteOffset":493648,
			"target":34962
		},
		{
			"buffer":0,
			"byteLength":2160,
			"byteOffset":498064,
			"target":34963
		},
		{
			"buffer":0,
			"byteLength":576,
			"byteOffset":500224,
			"target":34962
		},
		{
			"buffer":0,
			"byteLength":576,
			"byteOffset":500800,
			"target":34962
		},
		{
			"buffer":0,
			"byteLength":384,
			"byteOffset":501376,
			"target":34962
		},
		{
			"buffer":0,
			"byteLength":144,
			"byteOffset":501760,
			"target":34963
		},
		{
			"buffer":0,
			"byteLength":7200,
			"byteOffset":501904,
			"target":34962
		},
		{
			"buffer":0,
			"byteLength":7200,
			"byteOffset":509104,
			"target":34962
		},
		{
			"buffer":0,
			"byteLength":4800,
			"byteOffset":516304,
			"target":34962
		},
		{
			"buffer":0,
			"byteLength":2376,
			"byteOffset":521104,
			"target":34963
		},
		{
			"buffer":0,
			"byteLength":8640,
			"byteOffset":523480,
			"target":34962
		},
		{
			"buffer":0,
			"byteLength":8640,
			"byteOffset":532120,
			"target":34962
		},
		{
			"buffer":0,
			"byteLength":5760,
			"byteOffset":540760,
			"target":34962
		},
		{
			"buffer":0,
			"byteLength":2712,
			"byteOffset":546520,
			"target":34963
		},
		{
			"buffer":0,
			"byteLength":13824,
			"byteOffset":549232,
			"target":34962
		},
		{
			"buffer":0,
			"byteLength":13824,
			"byteOffset":563056,
			"target":34962
		},
		{
			"buffer":0,
			"byteLength":9216,
			"byteOffset":576880,
			"target":34962
		},
		{
			"buffer":0,
			"byteLength":4632,
			"byteOffset":586096,
			"target":34963
		},
		{
			"buffer":0,
			"byteLength":432,
			"byteOffset":590728,
			"target":34962
		},
		{
			"buffer":0,
			"byteLength":432,
			"byteOffset":591160,
			"target":34962
		},
		{
			"buffer":0,
			"byteLength":288,
			"byteOffset":591592,
			"target":34962
		},
		{
			"buffer":0,
			"byteLength":120,
			"byteOffset":591880,
			"target":34963
		},
		{
			"buffer":0,
			"byteLength":8340,
			"byteOffset":592000,
			"target":34962
		},
		{
			"buffer":0,
			"byteLength":8340,
			"byteOffset":600340,
			"target":34962
		},
		{
			"buffer":0,
			"byteLength":5560,
			"byteOffset":608680,
			"target":34962
		},
		{
			"buffer":0,
			"byteLength":2676,
			"byteOffset":614240,
			"target":34963
		},
		{
			"buffer":0,
			"byteLength":5616,
			"byteOffset":616916,
			"target":34962
		},
		{
			"buffer":0,
			"byteLength":5616,
			"byteOffset":622532,
			"target":34962
		},
		{
			"buffer":0,
			"byteLength":3744,
			"byteOffset":628148,
			"target":34962
		},
		{
			"buffer":0,
			"byteLength":1848,
			"byteOffset":631892,
			"target":34963
		},
		{
			"buffer":0,
			"byteLength":1128,
			"byteOffset":633740,
			"target":34962
		},
		{
			"buffer":0,
			"byteLength":1128,
			"byteOffset":634868,
			"target":34962
		},
		{
			"buffer":0,
			"byteLength":752,
			"byteOffset":635996,
			"target":34962
		},
		{
			"buffer":0,
			"byteLength":336,
			"byteOffset":636748,
			"target":34963
		},
		{
			"buffer":0,
			"byteLength":10368,
			"byteOffset":637084,
			"target":34962
		},
		{
			"buffer":0,
			"byteLength":10368,
			"byteOffset":647452,
			"target":34962
		},
		{
			"buffer":0,
			"byteLength":6912,
			"byteOffset":657820,
			"target":34962
		},
		{
			"buffer":0,
			"byteLength":3384,
			"byteOffset":664732,
			"target":34963
		},
		{
			"buffer":0,
			"byteLength":6336,
			"byteOffset":668116,
			"target":34962
		},
		{
			"buffer":0,
			"byteLength":6336,
			"byteOffset":674452,
			"target":34962
		},
		{
			"buffer":0,
			"byteLength":4224,
			"byteOffset":680788,
			"target":34962
		},
		{
			"buffer":0,
			"byteLength":2088,
			"byteOffset":685012,
			"target":34963
		},
		{
			"buffer":0,
			"byteLength":288,
			"byteOffset":687100,
			"target":34962
		},
		{
			"buffer":0,
			"byteLength":288,
			"byteOffset":687388,
			"target":34962
		},
		{
			"buffer":0,
			"byteLength":192,
			"byteOffset":687676,
			"target":34962
		},
		{
			"buffer":0,
			"byteLength":72,
			"byteOffset":687868,
			"target":34963
		}
	],
	"samplers":[
		{
			"magFilter":9728,
			"minFilter":9984
		}
	],
	"buffers":[
		{
			"byteLength":687940,
			"uri":"GlowingNumbers.bin"
		}
	]
}
